<svg width="22" height="22" viewBox="0 0 22 22" fill="none" xmlns="http://www.w3.org/2000/svg">
<path d="M18.7367 0H3.26333C2.39859 0.00241564 1.56995 0.346544 0.95848 0.957194C0.34701 1.56784 0.00241888 2.39537 0 3.25895L0 18.7115C0.00241888 19.5751 0.34701 20.4026 0.95848 21.0133C1.56995 21.6239 2.39859 21.9681 3.26333 21.9705H18.7367C19.6014 21.9681 20.43 21.6239 21.0415 21.0133C21.653 20.4026 21.9976 19.5751 22 18.7115V3.25895C21.9976 2.39537 21.653 1.56784 21.0415 0.957194C20.43 0.346544 19.6014 0.00241564 18.7367 0V0ZM20.1667 18.7115C20.1667 19.0903 20.016 19.4535 19.7478 19.7213C19.4797 19.9891 19.1159 20.1396 18.7367 20.1396H3.26333C2.88407 20.1396 2.52035 19.9891 2.25217 19.7213C1.98399 19.4535 1.83333 19.0903 1.83333 18.7115V3.25895C1.83333 2.8802 1.98399 2.51696 2.25217 2.24915C2.52035 1.98133 2.88407 1.83087 3.26333 1.83087H18.7367C19.1159 1.83087 19.4797 1.98133 19.7478 2.24915C20.016 2.51696 20.1667 2.8802 20.1667 3.25895V18.7115Z" fill="#7C7C7C"/>
<path d="M11.0001 5.4928C9.91233 5.4928 8.84896 5.81493 7.94449 6.41847C7.04002 7.02201 6.33507 7.87984 5.91879 8.88348C5.50251 9.88713 5.39359 10.9915 5.60581 12.057C5.81802 13.1224 6.34185 14.1011 7.11104 14.8693C7.88023 15.6374 8.86023 16.1606 9.92713 16.3725C10.994 16.5844 12.0999 16.4757 13.1049 16.0599C14.1099 15.6442 14.9689 14.9402 15.5732 14.0369C16.1776 13.1337 16.5001 12.0718 16.5001 10.9854C16.5001 9.52868 15.9207 8.13161 14.8892 7.10155C13.8578 6.07148 12.4588 5.4928 11.0001 5.4928ZM11.0001 14.6472C10.2749 14.6472 9.56601 14.4324 8.96303 14.03C8.36005 13.6277 7.89009 13.0558 7.61257 12.3867C7.33504 11.7176 7.26243 10.9814 7.40391 10.271C7.54539 9.56074 7.89461 8.90827 8.4074 8.39617C8.92019 7.88407 9.57353 7.53532 10.2848 7.39403C10.9961 7.25274 11.7333 7.32525 12.4033 7.6024C13.0733 7.87955 13.6459 8.34889 14.0488 8.95106C14.4517 9.55323 14.6668 10.2612 14.6668 10.9854C14.6668 11.9566 14.2805 12.8879 13.5928 13.5747C12.9052 14.2614 11.9726 14.6472 11.0001 14.6472Z" fill="#7C7C7C"/>
<path d="M16.9584 6.40817C17.7178 6.40817 18.3334 5.79339 18.3334 5.03502C18.3334 4.27665 17.7178 3.66187 16.9584 3.66187C16.199 3.66187 15.5834 4.27665 15.5834 5.03502C15.5834 5.79339 16.199 6.40817 16.9584 6.40817Z" fill="#7C7C7C"/>
</svg>
